PathFileType	4	(X/Y/Z)	C:\Github\BTS_project\Data\sports2d_results\test4 Exam_2026-03-06_143128_tvc2_Sports2D\test4 Exam_2026-03-06_143128_tvc2_Sports2D_px_person00.trc
DataRate	CameraRate	NumFrames	NumMarkers	Units	OrigDataRate	OrigDataStartFrame	OrigNumFrames
30.0	30.0	12	22	m	30.0	40	321
Frame#	Time	Hip			RHip			RKnee			RAnkle			RBigToe			RSmallToe			RHeel			LHip			LKnee			LAnkle			LBigToe			LSmallToe			LHeel			Neck			Head			Nose			RShoulder			RElbow			RWrist			LShoulder			LElbow			LWrist			
		X1	Y1	Z1	X2	Y2	Z2	X3	Y3	Z3	X4	Y4	Z4	X5	Y5	Z5	X6	Y6	Z6	X7	Y7	Z7	X8	Y8	Z8	X9	Y9	Z9	X10	Y10	Z10	X11	Y11	Z11	X12	Y12	Z12	X13	Y13	Z13	X14	Y14	Z14	X15	Y15	Z15	X16	Y16	Z16	X17	Y17	Z17	X18	Y18	Z18	X19	Y19	Z19	X20	Y20	Z20	X21	Y21	Z21	X22	Y22	Z22
40	1.3375	334.3522588510697	711.4959167575915	0.0	303.2902761398667	717.2300271015459	0.0	306.64267407770285	833.6406937591672	0.0	327.84750273304235	930.6006554372067	0.0	330.53359797178086	966.7053980252605	0.0	313.27318507681997	962.0184290322272	0.0	338.5355480980203	938.9907438667004	0.0	365.92268229839607	714.0397064387012	0.0	372.4908405582356	820.1739838466594	0.0	366.4049622226493	889.4647996878992	0.0	376.5788063562747	938.9791310011668	0.0	392.08852347636315	928.6457437330612	0.0	360.6188815126747	896.814289090107	0.0	319.8409272109454	545.2393995268485	0.0	306.2221972263542	462.9786775383494	0.0	309.69773644837255	519.0656710335641	0.0	266.52422456751003	572.2984356425352	0.0	232.60944781589293	637.7787747327388	0.0	197.94667203695025	702.9617036004839	0.0	381.3723778229922	560.5537288692244	0.0	407.4515547858919	633.8466565547465	0.0	419.74539598371587	705.1109737173745	0.0
41	1.3709374999999997	334.52105380711373	711.500077747656	0.0	303.70964695004557	717.4739114343055	0.0	306.83458567939556	833.7085043643694	0.0	327.8507144867932	930.7929637161005	0.0	330.1311304845209	966.7751706099347	0.0	313.48527010506615	962.1886731679839	0.0	338.79166004105485	939.4911380902365	0.0	366.0410398665694	713.8690392558135	0.0	372.5693391237967	819.5147865702274	0.0	366.07957860406094	887.4770440428008	0.0	376.5314634070836	936.3745192182993	0.0	392.02280348581144	926.0685719917903	0.0	359.8650446380208	894.724796554728	0.0	319.3476718917881	545.2242389219746	0.0	306.1223424485368	462.96808678952345	0.0	310.0040273227437	518.9521073269015	0.0	265.8282360522594	572.5614949167222	0.0	231.43710066388476	637.3455090794821	0.0	195.85383019833495	701.5506287406059	0.0	380.8351356897343	560.4616618813228	0.0	407.3239327743469	633.4059800548193	0.0	419.57858330348915	705.0099190885246	0.0
42	1.4043749999999997	334.52862828052037	711.319602331535	0.0	304.01999246073683	717.4195927155249	0.0	306.9159602760326	833.5027771672417	0.0	327.840388831935	930.815684779152	0.0	329.85287951651253	966.8120469449273	0.0	313.8985707623675	962.6943548146612	0.0	338.83990566655723	939.8856755038332	0.0	366.18648453985514	713.244604281509	0.0	372.7051282007843	818.3247226341646	0.0	365.62716988155285	884.7705016624806	0.0	376.3138368457047	933.1001399050156	0.0	391.77702090048814	922.4978430736004	0.0	359.0024141968244	891.9523196587903	0.0	319.14157464358857	545.4347488810702	0.0	305.9733693192741	463.0686414122429	0.0	310.6956655368532	518.8661283709472	0.0	265.57632995771814	573.0071373496163	0.0	230.53392099646285	636.7396199623414	0.0	194.0414737629829	700.395836709202	0.0	380.3320059954853	560.7531958216948	0.0	407.1084732847275	632.8230179098324	0.0	419.3993134023706	704.5634893804322	0.0
43	1.4378124999999997	334.4894148959534	711.1390770361716	0.0	303.9960289293249	717.2464569279722	0.0	306.99322553316847	833.1862338427766	0.0	327.68632106425946	930.6305733957943	0.0	329.7529850629947	966.6834873961932	0.0	314.131565261389	963.1484852922194	0.0	338.84271004775775	940.3258599941455	0.0	366.425974682968	712.6633626335313	0.0	373.164069966847	817.08661740798	0.0	364.9268147392165	881.5815246428544	0.0	375.6546049878116	930.2044186479359	0.0	391.1501180403172	919.4824323987184	0.0	357.9802801133723	887.893677673301	0.0	319.15888528094115	545.7803156645846	0.0	305.7852080822369	463.1429636772371	0.0	310.78156723371944	519.0220819897982	0.0	265.4359084177808	573.1980542419956	0.0	229.61316746031912	635.9553171260937	0.0	192.82334952327662	699.381324243015	0.0	380.09195797978236	561.0508790547426	0.0	406.68374230541764	632.5657341305221	0.0	419.24489251260906	703.4232220277772	0.0
44	1.4712499999999997	334.5490815658176	710.9803141767704	0.0	303.8003227816925	717.1211324901677	0.0	307.12389560069556	833.0714220979232	0.0	327.3663832342325	930.2294459293356	0.0	329.8194341939537	966.7355899418509	0.0	314.07962241329415	963.2667649890248	0.0	338.8139507971676	940.6008645721473	0.0	366.548248259688	712.4081144236384	0.0	373.79020921390077	816.0011736670897	0.0	364.2123123514192	878.5007339876117	0.0	374.87096545462555	927.9968308822691	0.0	390.32556756806355	917.3339271287024	0.0	357.0641231969336	883.853815775007	0.0	319.18215624897323	546.0536453880017	0.0	305.75381798285525	463.0173786914875	0.0	310.44869591318076	519.3662081889747	0.0	264.9829292401572	573.1148713996721	0.0	228.61127351104474	635.5670769641993	0.0	192.11954044702853	699.0114415763111	0.0	380.0568581580261	560.9681836053816	0.0	406.2666273209379	632.5708889293086	0.0	419.3333021653738	702.003579869735	0.0
45	1.5046874999999997	334.7457053503255	710.7927448213143	0.0	303.6239722439337	717.0044066906305	0.0	307.24955796583015	833.2955364484402	0.0	327.16874328041683	929.7645594402986	0.0	330.03000592905505	967.1110646980553	0.0	313.9740934504344	963.1288768455156	0.0	338.7742911272446	940.157834545611	0.0	366.4774418069793	712.2913609062257	0.0	374.19100728467737	815.029165677056	0.0	363.9345595980252	875.9634529423843	0.0	374.58648680062413	926.0323488579413	0.0	389.83407171823393	915.3804616279233	0.0	356.5964953127005	881.1938409551808	0.0	318.9581812206118	546.2570483089645	0.0	305.7022742909639	462.7942499925231	0.0	310.4048837773177	519.6426228205787	0.0	264.2366235202097	572.9913876230639	0.0	227.88774786990172	635.8458441037376	0.0	191.63454589665423	699.3675560920224	0.0	380.06153671549305	560.6131943239255	0.0	406.17690567900786	632.5159014669612	0.0	419.7220381107869	700.9703373637973	0.0
46	1.5381249999999997	334.9219067311076	710.8292582662518	0.0	303.50810125434504	716.9198984488062	0.0	307.29946927737586	833.7404756204929	0.0	327.25874887509343	929.4641266657782	0.0	330.2647454530368	967.2667314169607	0.0	314.0129716022	962.8974558261627	0.0	338.7997914895308	939.2764637259469	0.0	366.3646770423514	712.3007312262077	0.0	374.3462289878099	814.7407983524886	0.0	364.045099265057	873.7446292782397	0.0	374.7901699330018	923.7445701510595	0.0	389.8217919903305	912.9538214411299	0.0	356.35724414598457	878.9799214887773	0.0	318.44912855627376	546.4480869320398	0.0	305.31969935126983	462.90593899758915	0.0	310.54904486078294	519.850440910844	0.0	263.56751484670065	572.8964845178705	0.0	227.67898757469348	636.377202450835	0.0	191.3149070171944	699.676723390468	0.0	379.9191102418907	560.4368488350976	0.0	406.33087491438414	632.316020311102	0.0	420.133566306137	700.4703905155224	0.0
47	1.5715624999999998	334.93843561716426	711.2963148528211	0.0	303.4217204470582	717.0458569704708	0.0	307.29006775609525	834.1442572820264	0.0	327.45645094251665	929.386593063045	0.0	330.51841814276935	966.972319933188	0.0	314.1612448809042	962.669607755611	0.0	338.7724882378206	938.7534674705753	0.0	366.34698215498776	712.7500953481318	0.0	374.4144394047529	815.5631156448698	0.0	364.1065147572963	871.4191819534653	0.0	375.0049119968463	920.9205997381017	0.0	389.9216783976965	909.9034875825754	0.0	355.8204526723103	875.9568255758026	0.0	317.9599108089995	546.6383770101335	0.0	304.73020923319734	463.67112468209564	0.0	310.2046580670469	520.1151309134997	0.0	263.1848642755538	572.9879551121282	0.0	227.72538055440214	636.7002471438464	0.0	191.30045180355285	699.5691466466459	0.0	379.6055715096217	560.6703827984272	0.0	406.4919920163119	632.152789946387	0.0	420.50888742609015	700.2323933167747	0.0
48	1.6049999999999998	334.91186579439767	711.8080375153968	0.0	303.37553845234754	717.4683068116392	0.0	307.31121108484905	834.2850961971561	0.0	327.5564869880708	929.4366489809989	0.0	330.95741265246005	966.6560196506045	0.0	314.3842746315677	962.4311801921212	0.0	338.6295268120094	938.7297272942085	0.0	366.42308274649156	713.6180559391488	0.0	374.3588513670226	816.7623131881271	0.0	364.02307902887173	869.359600238964	0.0	375.1387591768808	918.375851747593	0.0	389.9168175697711	907.1946812542019	0.0	355.0841240192853	873.1972882260615	0.0	317.830820975764	546.9677206681076	0.0	304.35382790277436	464.5794437330187	0.0	309.4375896740266	520.3176462910658	0.0	263.00375828208274	573.5040842218509	0.0	227.73661100021093	636.857921442603	0.0	191.45590383527758	699.6126335749627	0.0	379.32020918162675	561.1065879477853	0.0	406.75324098801855	632.1300447275007	0.0	421.2807865457973	700.1289755551096	0.0
49	1.6384374999999998	334.96415789088354	711.8767072668707	0.0	303.43463919209415	718.0389279887233	0.0	307.3747976858811	834.2728275364669	0.0	327.6013986251536	929.5571546892575	0.0	331.4930389930018	966.5764412090449	0.0	314.6866518575505	962.2911097629055	0.0	338.71210062759747	938.8755709596996	0.0	366.47581838393035	714.2741805475814	0.0	374.11841154752574	817.4496228056024	0.0	363.98547674614156	868.2346667790473	0.0	375.4278714655777	917.008154700454	0.0	390.0157449285765	905.7231336983838	0.0	354.76000177972765	872.2859021886186	0.0	318.0071511481424	547.4956900217812	0.0	304.29513108288893	464.8031699731909	0.0	308.9192574307725	520.3923634095295	0.0	262.94475769929556	574.1683381048615	0.0	227.72720882119467	637.1311732439176	0.0	191.489318176351	700.2327627839086	0.0	379.1934905765559	561.4075422354459	0.0	407.2194906788651	632.1506803123771	0.0	422.62758974314664	700.0927098778159	0.0
50	1.6718749999999998	334.9324756437936	711.6883249411298	0.0	303.42054706711207	718.510070774122	0.0	307.41480828119654	834.3893439881666	0.0	327.75233545816775	929.7266613161806	0.0	331.8382815057971	966.7230908637969	0.0	314.9507607145861	962.6038842738794	0.0	339.2137598781749	939.0297291107956	0.0	366.4003940859129	714.2452140788478	0.0	373.84305983368904	817.5325750634379	0.0	364.0268251730314	867.8483232674575	0.0	375.7278505624741	916.3332362984963	0.0	390.36387632394826	904.702057983464	0.0	354.9829341722372	872.766894923961	0.0	318.07045608704846	547.9878218382552	0.0	304.3502969729667	464.4275799333988	0.0	308.8264823505141	520.4814202846879	0.0	262.9660055919404	574.4580426585396	0.0	227.73845143959656	637.4986649740201	0.0	191.42171012289987	700.9957668242787	0.0	379.1224007012423	561.4774630200917	0.0	407.63356264340655	632.1304867028431	0.0	424.03150226065793	700.0010138114542	0.0
51	1.7053124999999998	334.5959110291576	711.723061723231	0.0	303.0737411730384	718.7073528970491	0.0	307.4101509010247	834.703720204059	0.0	327.8584546185866	929.8944219831487	0.0	332.0588000317236	966.9970634947158	0.0	315.1818877128744	963.2307568020267	0.0	339.66511917984053	939.1791105109463	0.0	366.15992429709706	713.8685552752378	0.0	373.6276540128734	817.4062620322833	0.0	364.06398187119703	867.6380823338299	0.0	375.6819595956192	915.596373132164	0.0	390.7563139448649	903.1917753782077	0.0	355.4639535903964	873.1818592968986	0.0	317.7146999048971	548.2001560471494	0.0	304.37951989686945	464.0998645563325	0.0	308.8840375700053	520.583572360883	0.0	262.9854979843469	574.3489146628722	0.0	227.72324053218188	637.7705991946383	0.0	191.5159961404853	701.3963414581583	0.0	378.90880315812353	561.4988375411909	0.0	407.8082056445905	632.1421725129626	0.0	425.0761815251848	699.965208859676	0.0
